<?xml version="1.0" encoding="UTF-8"?> <svg xmlns="http://www.w3.org/2000/svg" viewBox="0 0 217.71 71.75"><defs><style>.cls-1{fill:#006937;}.cls-2{fill:#76bc21;}</style></defs><title>Asset 1</title><g id="Layer_2" data-name="Layer 2"><g id="Layer_1-2" data-name="Layer 1"><path class="cls-1" d="M16,41.6a2.11,2.11,0,0,1-1.69-.77A3.78,3.78,0,0,0,16,37.7c0-1.28-.7-2.45-2.72-2.45a3.07,3.07,0,0,0-3.38,3.32c0,5.36,8.26,6.09,8.26,14,0,6.13-5,9.12-10.32,9.12C3.6,61.66,0,59.83,0,55.39c0-3.94,2.83-6,5.4-6,1.29,0,3.12.52,3.23,2.41-2,0-4.29.91-4.29,3.43a3.33,3.33,0,0,0,3.52,3.5c2.46,0,4.26-1.79,4.26-4.85,0-6.23-7.53-8.46-7.53-13.82,0-3.79,3.75-6.53,8.49-6.53,1.73,0,5.92.37,5.92,4.38C19,40,17.82,41.6,16,41.6Z"></path><path class="cls-1" d="M27.55,57.8c3.1,0,5-1.72,7-3.94h1.34C33.6,57.45,30.26,61.07,25,61.07c-3.69,0-6.13-1.79-6.13-6.2S21.45,41,29.51,41c3.5,0,4.32,1.8,4.32,3.75,0,4.48-4.32,8-9,8.23,0,.55-.07,1.09-.07,1.56C24.72,57.17,25.66,57.8,27.55,57.8Zm2.28-14.75c-2,0-3.93,4.17-4.72,8a6.56,6.56,0,0,0,5.7-6.44C30.81,43.67,30.57,43.05,29.83,43.05Z"></path><path class="cls-1" d="M54.12,44.73c-1.42,0-2.48,1.64-3.07,3.59L48.38,60.84H42.72l2.87-13.46a3.8,3.8,0,0,0,.11-1c0-.86-.31-1.72-1.17-1.72-1.54,0-2.6,1.68-3.19,3.63L38.67,60.84H33l4.17-19.51h5.65l-.43,2a6.07,6.07,0,0,1,4.8-2.22,3.71,3.71,0,0,1,4,3.36c1.88-2.89,4-3.32,5.46-3.32,2.51,0,4.36,1.29,4.36,4.41s-1.89,7.88-1.89,10.06c0,1,.4,1.64,1.58,1.64,1.73,0,2.43-1.4,3.3-3.43h1.65c-2.2,6.39-5.23,7.21-7.31,7.21-3.42,0-4.64-2.18-4.64-4.4,0-2.66,1.77-7.46,1.77-10C55.53,45.43,55.06,44.73,54.12,44.73Z"></path><path class="cls-1" d="M71.76,57.37A8.07,8.07,0,0,0,76.4,55.3c-.82,4.45-3.65,5.77-6.8,5.77-3.65,0-6.09-1.79-6.09-6.2S66.06,41,74.12,41c3.5,0,4.32,1.8,4.32,3.75,0,4.52-4.32,8-9,8.23,0,.39-.08.82-.08,1.17C69.33,56.59,70.39,57.37,71.76,57.37Zm2.68-14.32c-2,0-3.93,4.33-4.76,8a6.5,6.5,0,0,0,5.74-6.44C75.42,43.67,75.18,43.05,74.44,43.05Z"></path><path class="cls-2" d="M104.09,29.11c-.36-5.23-6-5.64-7.73-5.64-6.14,0-11,3.72-11.19,8.64C85,35.52,87.1,38,89.31,40.6c2.45,2.89,5,5.88,4.76,10.44-.2,4.21-2.63,6.94-6.19,6.94a4.59,4.59,0,0,1-3.41-1.33,5.05,5.05,0,0,1-1.28-3.8c.17-3.53,3.17-4.88,5.82-5-.23-2.54-3.13-2.68-3.72-2.68-3.27,0-6.88,2.77-7.13,7.89A7.31,7.31,0,0,0,80,58.74c1.61,1.68,4.3,2.6,7.57,2.6,6.55,0,13.34-3.76,13.75-12.18.28-5.77-2.66-8.6-5.5-11.33-.41-.39-.81-.77-1.19-1.16l-.52-.53h.74a10.11,10.11,0,0,0,4.72-1C101,34.33,104.3,32.16,104.09,29.11Zm-2.58,1.27c-1.49,3.86-5.88,4.28-8.24,4.5l-.18,0L93,34.75A7.11,7.11,0,0,1,91.49,30c.15-3,2-4.84,5-4.84a6,6,0,0,1,4.8,2.11A3.19,3.19,0,0,1,101.51,30.38Z"></path><path class="cls-2" d="M110.46,57.8c3.1,0,5-1.72,7-3.94h1.33c-2.24,3.59-5.58,7.21-10.81,7.21-3.69,0-6.13-1.79-6.13-6.2S104.37,41,112.42,41c3.5,0,4.33,1.8,4.33,3.75,0,4.48-4.33,8-9,8.23,0,.55-.08,1.09-.08,1.56C107.63,57.17,108.58,57.8,110.46,57.8Zm2.28-14.75c-2,0-3.93,4.17-4.72,8a6.56,6.56,0,0,0,5.7-6.44C113.72,43.67,113.49,43.05,112.74,43.05Z"></path><path class="cls-2" d="M137,44.73c-1.42,0-2.48,1.64-3.07,3.59l-2.67,12.52h-5.66l2.87-13.46a3.79,3.79,0,0,0,.12-1c0-.86-.32-1.72-1.18-1.72-1.53,0-2.59,1.68-3.18,3.63l-2.68,12.52h-5.66l4.17-19.51h5.66l-.43,2a6.06,6.06,0,0,1,4.79-2.22,3.7,3.7,0,0,1,4,3.36c1.89-2.89,4-3.32,5.46-3.32,2.52,0,4.37,1.29,4.37,4.41s-1.89,7.88-1.89,10.06c0,1,.39,1.64,1.57,1.64,1.73,0,2.44-1.4,3.3-3.43h1.65c-2.2,6.39-5.22,7.21-7.31,7.21-3.42,0-4.63-2.18-4.63-4.4,0-2.66,1.76-7.46,1.76-10C138.44,45.43,138,44.73,137,44.73Z"></path><path class="cls-2" d="M155.11,57.8c3.1,0,5-1.72,7-3.94h1.33c-2.24,3.59-5.58,7.21-10.8,7.21-3.7,0-6.14-1.79-6.14-6.2S149,41,157.08,41c3.49,0,4.32,1.8,4.32,3.75,0,4.48-4.32,8-9,8.23,0,.55-.08,1.09-.08,1.56C152.28,57.17,153.22,57.8,155.11,57.8Zm2.28-14.75c-2,0-3.93,4.17-4.72,8a6.56,6.56,0,0,0,5.7-6.44C158.37,43.67,158.14,43.05,157.39,43.05Z"></path><path class="cls-2" d="M172,44.73c-1.41,0-2.47,1.64-3.06,3.59l-2.68,12.52h-5.66l4.17-19.51h5.66l-.43,2a5.86,5.86,0,0,1,4.59-2.18c2.52,0,4.37,1.29,4.37,4.41S177,53.47,177,55.65c0,1,.39,1.64,1.57,1.64,1.73,0,2.44-1.4,3.3-3.43h1.65c-2.2,6.39-5.22,7.21-7.31,7.21-3.42,0-4.63-2.18-4.63-4.4,0-2.66,1.76-7.46,1.76-10C173.38,45.43,172.91,44.73,172,44.73Z"></path><path class="cls-2" d="M200.78,41.33,198,54.6a5.32,5.32,0,0,0-.16,1.25c0,1.09.51,1.44,1.61,1.44a2,2,0,0,0,.87-.16c-1.06,2.74-1.81,3.94-3.93,3.94a3.76,3.76,0,0,1-3.85-3.62,7.11,7.11,0,0,1-5.86,3.62c-2.67,0-5.23-1.64-5.23-6.28,0-5.26,3.27-13.65,10.1-13.65,2.24,0,3.19.86,3.19,2v.27l.43-2.07ZM187.22,54.25c0,3,1.26,3,2,3,1.14,0,2.79-1.17,3.26-3.43L194.33,45a1.51,1.51,0,0,0-1.61-1.48C189.38,43.56,187.22,50.58,187.22,54.25Z"></path><path class="cls-2" d="M51.86,18.64a5.24,5.24,0,0,1-.94.8s8.66,5.31,19.66,10.68a96.21,96.21,0,0,0,19.54,7.31l1-2.56s-8.42-.76-23-7.38C62.45,24.91,55.06,21.13,51.86,18.64Z"></path><path class="cls-2" d="M54.42,24.85A45.41,45.41,0,0,1,44.08,26c-2.37-.06-4.66-.67-5.69-.69l-.36,0a1.79,1.79,0,0,1,.36,0c2-.12,4.39.5,7.23.34a39.3,39.3,0,0,0,8.56-1.59l.33-.11c-.89-2.17-4.17-3.71-8.84-3.6s-9.38,2.28-13.8,7.77c5.91-1.58,9.59,3.76,15.56,3.28,6.93-.55,7.31-6.58,7.31-6.58a.36.36,0,0,0,0-.1Z"></path><path class="cls-2" d="M57.18,19.45a29.1,29.1,0,0,1,.52-6.72c.34-1.5,1-2.88,1.15-3.53l0-.23a1.11,1.11,0,0,1,0,.23c-.16,1.27-.86,2.72-1.11,4.55a25.38,25.38,0,0,0-.05,5.64,2.07,2.07,0,0,1,0,.22c1.51-.29,2.91-2.19,3.41-5.17s-.29-6.24-3.29-9.73c.29,4-3.61,5.62-4.05,9.47a4.79,4.79,0,0,0,3.34,5.47h.06Z"></path><path class="cls-2" d="M50.12,17.79A49.42,49.42,0,0,0,42,9.91c-2.1-1.51-4.5-2.5-5.4-3.16l-.3-.27a1.65,1.65,0,0,0,.3.27c1.62,1.41,4.13,2.47,6.5,4.5a42.27,42.27,0,0,1,6.36,7l.22.32c-2.24,1.29-6.12.46-10.09-2.73S32.92,7.69,32.78,0c4.06,5.28,10.84,3.08,15.7,7.44C54.13,12.51,50.41,18,50.41,18l-.08.08Z"></path><rect class="cls-2" x="32.98" y="35.38" width="1.16" height="66.5" transform="translate(-35.17 101.98) rotate(-89.82)"></rect><rect class="cls-2" x="129.36" y="68.46" width="71.55" height="1.15"></rect><path class="cls-2" d="M73.69,71.64H71.48a1,1,0,0,1-.68-.19.84.84,0,0,1-.2-.63v-5a.82.82,0,0,1,.2-.62,1,1,0,0,1,.68-.2h2.34a7.37,7.37,0,0,1,.9.06,2.1,2.1,0,0,1,.68.23,1.66,1.66,0,0,1,.75.82,1.5,1.5,0,0,1,.11.55,1.53,1.53,0,0,1-1.09,1.45c1,.28,1.43.81,1.43,1.61a1.77,1.77,0,0,1-.31,1,1.88,1.88,0,0,1-.84.65,3.14,3.14,0,0,1-.76.18A9.66,9.66,0,0,1,73.69,71.64Zm-1.63-5.59v1.7H73.4a3,3,0,0,0,.84-.09.83.83,0,0,0,.58-.78.65.65,0,0,0-.39-.67,3.2,3.2,0,0,0-1.18-.16Zm1.52,2.66H72.06v1.93h1.57c1,0,1.48-.33,1.48-1a.76.76,0,0,0-.38-.72A2.33,2.33,0,0,0,73.58,68.71Z"></path><path class="cls-2" d="M83.38,66.08h-3.3V67.7h3a.79.79,0,0,1,.5.13.44.44,0,0,1,.16.37.45.45,0,0,1-.16.36.71.71,0,0,1-.5.14h-3v1.88h3.41a.77.77,0,0,1,.52.15.49.49,0,0,1,0,.76.77.77,0,0,1-.52.15h-4a1,1,0,0,1-.69-.19.83.83,0,0,1-.21-.63v-5a1.09,1.09,0,0,1,.09-.47.55.55,0,0,1,.3-.26,1.23,1.23,0,0,1,.51-.09h3.86a.77.77,0,0,1,.52.15.47.47,0,0,1,.17.37.45.45,0,0,1-.17.37A.77.77,0,0,1,83.38,66.08Z"></path><path class="cls-2" d="M89.29,64.93a4.06,4.06,0,0,1,1.92.42,2.79,2.79,0,0,1,1.22,1.18,3.68,3.68,0,0,1,.42,1.8,4.05,4.05,0,0,1-.23,1.39,2.91,2.91,0,0,1-1.79,1.79,4.43,4.43,0,0,1-1.51.24,4.25,4.25,0,0,1-1.52-.25,3,3,0,0,1-1.12-.7A3.05,3.05,0,0,1,86,69.71a4.16,4.16,0,0,1-.23-1.38,3.92,3.92,0,0,1,.24-1.4,2.88,2.88,0,0,1,1.8-1.76A4.21,4.21,0,0,1,89.29,64.93Zm2.08,3.4a2.86,2.86,0,0,0-.26-1.26,1.78,1.78,0,0,0-.73-.8A2.08,2.08,0,0,0,89.29,66a1.92,1.92,0,0,0-.81.15,1.8,1.8,0,0,0-.65.43,2.21,2.21,0,0,0-.42.74,3.15,3.15,0,0,0-.15,1,3.2,3.2,0,0,0,.15,1,1.86,1.86,0,0,0,1.09,1.2,2.12,2.12,0,0,0,.81.15,2,2,0,0,0,1-.26,1.85,1.85,0,0,0,.75-.79A2.85,2.85,0,0,0,91.37,68.33Z"></path><path class="cls-2" d="M101.46,69v1.26a1.15,1.15,0,0,1-.06.41.64.64,0,0,1-.2.27,1.81,1.81,0,0,1-.37.23,5.49,5.49,0,0,1-2.58.62,4.58,4.58,0,0,1-1.52-.23,3.22,3.22,0,0,1-1.17-.68,3,3,0,0,1-.74-1.08,3.78,3.78,0,0,1-.26-1.42,3.92,3.92,0,0,1,.25-1.4,3,3,0,0,1,.74-1.09,3.31,3.31,0,0,1,1.19-.68,4.87,4.87,0,0,1,1.59-.24,4.28,4.28,0,0,1,1.29.18,3.09,3.09,0,0,1,.91.45,2.15,2.15,0,0,1,.53.57,1.16,1.16,0,0,1,.17.53.55.55,0,0,1-.2.44.77.77,0,0,1-.49.17.73.73,0,0,1-.3-.06A.79.79,0,0,1,100,67a4.53,4.53,0,0,0-.46-.59,1.45,1.45,0,0,0-.5-.33,2.07,2.07,0,0,0-.81-.14,2.59,2.59,0,0,0-.91.16,1.81,1.81,0,0,0-.68.47,1.88,1.88,0,0,0-.43.74,2.76,2.76,0,0,0-.16,1,2.5,2.5,0,0,0,.59,1.78,2.11,2.11,0,0,0,1.63.63,3.64,3.64,0,0,0,.95-.12,5.14,5.14,0,0,0,.91-.35V69.18H99a1.43,1.43,0,0,1-.62-.11.41.41,0,0,1-.21-.38.46.46,0,0,1,.18-.37.69.69,0,0,1,.47-.14h1.66a2,2,0,0,1,.52,0,.53.53,0,0,1,.34.22A.8.8,0,0,1,101.46,69Z"></path><path class="cls-2" d="M105.57,68.82h-.51v2.12a.87.87,0,0,1-.2.62.83.83,0,0,1-1.07,0,.86.86,0,0,1-.19-.61V65.86a.82.82,0,0,1,.21-.62,1,1,0,0,1,.68-.2h2.38c.33,0,.61,0,.85,0a2.42,2.42,0,0,1,.63.16,2.07,2.07,0,0,1,.6.37,1.61,1.61,0,0,1,.39.57,1.72,1.72,0,0,1,.14.68A1.56,1.56,0,0,1,109,68a2.69,2.69,0,0,1-1.38.62,2.72,2.72,0,0,1,.75.56A6.82,6.82,0,0,1,109,70a4.27,4.27,0,0,1,.43.75,1.23,1.23,0,0,1,.16.46.48.48,0,0,1-.09.26.71.71,0,0,1-.25.2.87.87,0,0,1-.37.07.76.76,0,0,1-.41-.1,1.06,1.06,0,0,1-.29-.27l-.33-.48-.58-.89a4.81,4.81,0,0,0-.57-.74,1.34,1.34,0,0,0-.5-.36A2,2,0,0,0,105.57,68.82Zm.84-2.77h-1.35v1.81h1.31a4.44,4.44,0,0,0,.89-.08,1.14,1.14,0,0,0,.55-.28.82.82,0,0,0,.19-.56.75.75,0,0,0-.16-.48.89.89,0,0,0-.42-.31A3.19,3.19,0,0,0,106.41,66.05Z"></path><path class="cls-2" d="M116.24,70.89l-.34-.82H113l-.34.84a3,3,0,0,1-.35.67.55.55,0,0,1-.47.17.72.72,0,0,1-.48-.18.52.52,0,0,1-.22-.42,1,1,0,0,1,.05-.28c0-.09.09-.23.17-.4l1.84-4.28c.06-.12.12-.27.19-.44a1.88,1.88,0,0,1,.24-.43.83.83,0,0,1,.33-.28,1.09,1.09,0,0,1,.5-.11,1.07,1.07,0,0,1,.51.11.89.89,0,0,1,.33.27,1.65,1.65,0,0,1,.22.36c0,.13.13.3.22.51l1.88,4.25a2.11,2.11,0,0,1,.23.71.57.57,0,0,1-.21.42.72.72,0,0,1-.51.19.73.73,0,0,1-.3,0,.53.53,0,0,1-.2-.16,1,1,0,0,1-.18-.29Zm-2.89-1.83h2.15l-1.08-2.72Z"></path><path class="cls-2" d="M120.54,65h1.91a5.87,5.87,0,0,1,1.28.13,2.53,2.53,0,0,1,1,.47,3.22,3.22,0,0,1,1.13,2.69,5.2,5.2,0,0,1-.11,1.08,3.3,3.3,0,0,1-.35.88,2.74,2.74,0,0,1-.61.71,2.41,2.41,0,0,1-.64.38,2.77,2.77,0,0,1-.74.2,5.93,5.93,0,0,1-.89.06h-1.91a1.37,1.37,0,0,1-.6-.11.53.53,0,0,1-.26-.31,1.86,1.86,0,0,1-.06-.52V65.86a.82.82,0,0,1,.21-.62A1,1,0,0,1,120.54,65Zm.57,1.06v4.48h1.11l.57,0a1.74,1.74,0,0,0,.43-.09,1.06,1.06,0,0,0,.38-.2,2.33,2.33,0,0,0,.74-2,2.67,2.67,0,0,0-.33-1.47,1.37,1.37,0,0,0-.79-.61,4.23,4.23,0,0,0-1.14-.14Z"></path><path class="cls-2" d="M217.71,40.42a6.9,6.9,0,1,1-6.88-6.72A6.75,6.75,0,0,1,217.71,40.42Zm-12.08,0a5.21,5.21,0,0,0,5.24,5.37A5.15,5.15,0,0,0,216,40.46a5.18,5.18,0,1,0-10.36,0Zm4.14,3.52h-1.56V37.23a12.9,12.9,0,0,1,2.58-.21,4.29,4.29,0,0,1,2.34.49,1.9,1.9,0,0,1,.65,1.48,1.71,1.71,0,0,1-1.39,1.55v.09a2,2,0,0,1,1.23,1.63,5,5,0,0,0,.49,1.68h-1.68a5.41,5.41,0,0,1-.53-1.63c-.13-.74-.54-1.07-1.4-1.07h-.73Zm0-3.81h.73c.86,0,1.56-.28,1.56-1s-.45-1-1.43-1a3.78,3.78,0,0,0-.86.08Z"></path></g></g></svg> 