<?xml version="1.0" encoding="UTF-8"?>
<!-- Generator: Adobe Illustrator 16.0.3, SVG Export Plug-In . SVG Version: 6.00 Build 0)  -->
<svg xmlns="http://www.w3.org/2000/svg" xmlns:xlink="http://www.w3.org/1999/xlink" version="1.1" id="Layer_1" x="0px" y="0px" width="623.622px" height="184.252px" viewBox="0 0 623.622 184.252" xml:space="preserve">
<g>
	<path fill-rule="evenodd" clip-rule="evenodd" d="M130.053,119.939H112.76c-0.765,0-1.204-0.438-1.204-1.205v-2.517   c0-0.767,0.439-1.204,1.204-1.204h5.144c0.382,0,0.602-0.217,0.602-0.602v-14.227c0-0.383-0.22-0.601-0.602-0.601l-3.336-0.002   c-0.768,0-1.205-0.438-1.205-1.203v-2.517c0-0.766,0.437-1.204,1.205-1.204h13.678c0.766,0,1.204,0.438,1.204,1.204v2.517   c0,0.766-0.438,1.205-1.204,1.205l-3.336-0.002c-0.385,0-0.603,0.22-0.603,0.603v14.227c0,0.385,0.218,0.602,0.603,0.602h5.144   c0.765,0,1.203,0.438,1.203,1.204v2.517C131.255,119.502,130.817,119.939,130.053,119.939"></path>
	<path fill-rule="evenodd" clip-rule="evenodd" d="M152.038,119.939h-3.227c-0.821,0-1.423-0.547-1.806-1.205l-7.168-11.982   c-0.328-0.547-0.711-0.547-0.711,0v11.982c0,0.768-0.438,1.205-1.204,1.205h-3.173c-0.767,0-1.204-0.438-1.204-1.205V95.863   c0-0.766,0.438-1.204,1.204-1.204h3.447c0.767,0,1.203,0.547,1.586,1.204l7.17,11.819c0.382,0.602,0.71,0.547,0.71,0V95.863   c0-0.766,0.438-1.204,1.203-1.204h3.174c0.768,0,1.205,0.438,1.205,1.204v22.871C153.242,119.502,152.806,119.939,152.038,119.939"></path>
	<path fill-rule="evenodd" clip-rule="evenodd" d="M165.38,120.485c-4.814,0-8.097-2.953-9.738-5.579   c-0.385-0.603-0.275-1.26,0.326-1.697l2.19-1.479c0.601-0.382,1.202-0.218,1.587,0.33c1.094,1.477,3.282,3.228,5.635,3.228   c2.845-0.001,3.994-1.697,3.994-3.283c0.001-2.845-4.049-2.736-4.049-2.736c-5.909-0.328-9.191-3.282-9.191-7.606   c0-3.61,3.007-7.55,9.246-7.55c3.01,0,6.019,1.313,7.879,3.61c0.437,0.493,0.437,1.205-0.163,1.642l-2.354,1.697   c-0.546,0.383-1.205,0.274-1.697-0.165c-1.202-1.147-2.571-1.641-3.666-1.641c-2.681,0-3.555,1.532-3.555,2.406   c0,2.463,3.61,2.463,3.61,2.463c5.252,0.219,9.795,2.572,9.795,7.88C175.23,116.766,171.619,120.485,165.38,120.485"></path>
	<path fill-rule="evenodd" clip-rule="evenodd" d="M196.013,99.583h-5.144c-0.383,0-0.602,0.22-0.602,0.603v18.549   c0,0.768-0.437,1.205-1.204,1.205h-3.393c-0.768,0-1.204-0.438-1.204-1.205v-18.549c0-0.383-0.219-0.601-0.601-0.601l-5.145-0.002   c-0.766,0-1.203-0.438-1.203-1.203v-2.517c0-0.766,0.437-1.204,1.203-1.204h17.292c0.766,0,1.203,0.438,1.203,1.204v2.517   C197.215,99.146,196.779,99.585,196.013,99.583"></path>
	<path fill-rule="evenodd" clip-rule="evenodd" d="M218,119.939h-17.292c-0.766,0-1.202-0.438-1.202-1.205v-2.517   c0-0.767,0.437-1.204,1.202-1.204h5.146c0.382,0,0.602-0.217,0.602-0.602v-14.227c0-0.383-0.22-0.601-0.602-0.601l-3.337-0.002   c-0.767,0-1.205-0.438-1.205-1.203v-2.517c0-0.766,0.438-1.204,1.205-1.204h13.679c0.766,0,1.204,0.438,1.204,1.204v2.517   c0,0.766-0.438,1.205-1.204,1.205l-3.338-0.002c-0.383,0-0.604,0.22-0.604,0.603v14.227c0,0.385,0.22,0.602,0.604,0.602H218   c0.767,0,1.205,0.438,1.205,1.204v2.517C219.204,119.502,218.766,119.939,218,119.939"></path>
	<path fill-rule="evenodd" clip-rule="evenodd" d="M239.987,99.583h-5.144c-0.382,0-0.601,0.22-0.601,0.603v18.549   c0,0.768-0.439,1.205-1.203,1.205h-3.393c-0.768,0-1.205-0.438-1.205-1.205v-18.549c0-0.383-0.218-0.601-0.603-0.601l-5.144-0.002   c-0.765,0-1.201-0.438-1.201-1.203v-2.517c0-0.766,0.437-1.204,1.201-1.204h17.292c0.766,0,1.205,0.438,1.205,1.204v2.517   C241.191,99.146,240.752,99.585,239.987,99.583"></path>
	<path fill-rule="evenodd" clip-rule="evenodd" d="M253.329,120.485c-5.909,0-9.849-4.268-9.849-9.137V95.863   c0-0.766,0.438-1.204,1.204-1.204h3.446c0.767,0,1.203,0.438,1.203,1.204v15.485c0,1.914,1.423,3.939,3.995,3.939   c2.571-0.001,3.996-2.024,3.996-3.939V95.863c0-0.766,0.436-1.204,1.202-1.204h3.449c0.765,0,1.203,0.438,1.203,1.204v15.485   C263.178,116.218,259.238,120.485,253.329,120.485"></path>
	<path fill-rule="evenodd" clip-rule="evenodd" d="M283.961,99.583h-5.145c-0.384,0-0.601,0.22-0.601,0.603v18.549   c0,0.768-0.438,1.205-1.204,1.205h-3.393c-0.767,0-1.203-0.438-1.203-1.205v-18.549c0-0.383-0.221-0.601-0.604-0.601l-5.141-0.002   c-0.767,0-1.206-0.438-1.206-1.203v-2.517c0-0.766,0.438-1.204,1.206-1.204h17.29c0.764,0,1.204,0.438,1.204,1.204v2.517   C285.166,99.146,284.725,99.585,283.961,99.583"></path>
	<path fill-rule="evenodd" clip-rule="evenodd" d="M318.086,119.939h-13.132c-4.651,0-7.168-5.09-3.885-8.974l8.976-10.615   c0.327-0.439,0.162-0.766-0.386-0.766l-6.673-0.002c-0.769,0-1.206-0.438-1.206-1.203l0.001-2.517c0-0.766,0.437-1.204,1.204-1.204   h11.874c2.078,0,3.227,1.095,3.227,3.01c0,1.203-0.547,2.134-1.039,2.735l-10.834,13.242c-0.492,0.602-0.164,1.367,0.547,1.367   h11.326c0.768,0,1.205,0.438,1.205,1.204v2.517C319.292,119.502,318.854,119.939,318.086,119.939"></path>
	<path fill-rule="evenodd" clip-rule="evenodd" d="M340.075,119.939h-3.45c-0.765,0-1.201-0.438-1.201-1.205v-8.372   c0-0.382-0.22-0.602-0.603-0.602h-6.784c-0.384,0-0.601,0.22-0.601,0.602v8.372c0,0.768-0.439,1.205-1.204,1.205h-3.448   c-0.767,0-1.204-0.438-1.204-1.205v-15.539c0-4.815,3.939-9.083,9.85-9.083c5.908,0,9.849,4.268,9.849,9.083l0.002,15.539   C341.28,119.502,340.841,119.939,340.075,119.939 M335.423,103.25c0-1.914-1.421-3.94-3.994-3.94c-2.572,0-3.993,2.026-3.993,3.94   v0.986c0,0.383,0.217,0.601,0.601,0.601h6.785c0.382,0,0.602-0.218,0.602-0.601V103.25z"></path>
	<path fill-rule="evenodd" clip-rule="evenodd" d="M365.556,112.388c-1.423,0-2.353-0.22-3.284-0.492   c-0.438-0.11-0.709,0-0.709,0.492v6.347c0,0.768-0.44,1.205-1.205,1.205h-3.447c-0.765,0-1.204-0.438-1.204-1.205V103.25   c0-4.87,3.938-9.138,9.85-9.138c5.909,0,9.849,4.268,9.849,9.138C375.406,108.119,371.465,112.388,365.556,112.388 M365.556,99.31   c-2.571,0-3.993,2.026-3.993,3.94c0,1.916,1.422,3.94,3.993,3.94c2.57,0,3.994-2.024,3.994-3.94   C369.55,101.336,368.126,99.31,365.556,99.31z"></path>
	<path fill-rule="evenodd" clip-rule="evenodd" d="M387.543,120.485c-5.91,0-9.851-4.268-9.851-9.137v-8.099   c0-4.87,3.94-9.138,9.851-9.138s9.849,4.268,9.849,9.138v8.099C397.392,116.218,393.453,120.485,387.543,120.485 M391.538,103.25   c0-1.914-1.424-3.94-3.994-3.94c-2.571,0-3.995,2.026-3.995,3.94l0.002,8.099c0,1.914,1.422,3.939,3.993,3.939   c2.57-0.001,3.994-2.024,3.994-3.939V103.25z"></path>
	<path fill-rule="evenodd" clip-rule="evenodd" d="M412.375,117.969c-0.437,1.368-1.313,2.517-2.845,2.517s-2.408-1.148-2.844-2.517   l-7.059-22.052c-0.221-0.602,0.271-1.258,1.146-1.258h3.448c0.602,0,1.202,0.494,1.422,1.204l3.392,11.107   c0.166,0.493,0.274,0.765,0.494,0.765c0.219,0,0.328-0.271,0.493-0.765l3.391-11.107c0.221-0.71,0.82-1.204,1.426-1.204h3.445   c0.877,0,1.366,0.656,1.149,1.259L412.375,117.969z"></path>
	<path fill-rule="evenodd" clip-rule="evenodd" d="M440.162,119.939h-3.448c-0.765,0-1.203-0.438-1.203-1.205v-5.032   c0-1.917-1.421-3.941-3.993-3.941h-3.392c-0.384,0-0.602,0.22-0.602,0.602v8.372c0,0.768-0.44,1.205-1.207,1.205h-3.443   c-0.769,0-1.207-0.438-1.207-1.205V103.25c0-4.87,3.941-9.138,9.851-9.138c5.908,0,9.85,2.954,9.85,8.1   c0,2.407-0.986,3.555-2.19,4.649c-0.327,0.329-0.383,0.656,0,0.985c1.261,1.204,2.19,2.681,2.19,5.855v5.032   C441.367,119.502,440.929,119.939,440.162,119.939 M431.517,99.31c-2.57,0-3.993,2.026-3.993,3.94v0.986   c0,0.383,0.218,0.601,0.602,0.601h3.392c1.149,0,3.993-0.329,3.993-2.625C435.51,100.186,433.597,99.31,431.517,99.31z"></path>
	<path fill-rule="evenodd" clip-rule="evenodd" d="M462.151,99.583h-5.146c-0.381,0-0.602,0.22-0.602,0.603v18.549   c0,0.768-0.438,1.205-1.203,1.205h-3.393c-0.766,0-1.202-0.438-1.202-1.205v-18.549c0-0.383-0.221-0.601-0.602-0.601l-5.146-0.002   c-0.769,0-1.204-0.438-1.204-1.203v-2.517c0-0.766,0.436-1.204,1.203-1.204h17.293c0.766,0,1.203,0.438,1.203,1.204v2.517   C463.354,99.146,462.917,99.585,462.151,99.583"></path>
	<path fill-rule="evenodd" clip-rule="evenodd" d="M484.135,119.939h-3.446c-0.765,0-1.204-0.438-1.204-1.205v-8.372   c0-0.382-0.22-0.602-0.602-0.602h-6.784c-0.383,0-0.603,0.22-0.603,0.602v8.372c0,0.768-0.438,1.205-1.203,1.205h-3.447   c-0.767,0-1.202-0.438-1.202-1.205v-15.539c0-4.815,3.938-9.083,9.848-9.083c5.908,0,9.849,4.268,9.849,9.083v15.539   C485.34,119.502,484.902,119.939,484.135,119.939 M479.485,103.25c0-1.914-1.423-3.94-3.993-3.94c-2.571,0-3.995,2.026-3.995,3.94   v0.986c0,0.383,0.22,0.601,0.602,0.601h6.785c0.382,0,0.602-0.218,0.602-0.601V103.25z"></path>
	<path fill-rule="evenodd" clip-rule="evenodd" d="M506.124,119.939h-3.447c-0.767,0-1.205-0.438-1.205-1.205v-5.032   c0-1.917-1.421-3.941-3.991-3.941h-3.396c-0.384,0-0.603,0.22-0.603,0.602v8.372c0,0.768-0.437,1.205-1.202,1.205h-3.447   c-0.766,0-1.204-0.438-1.204-1.205V103.25c0-4.87,3.938-9.138,9.852-9.138c5.908,0,9.847,2.954,9.847,8.1   c0,2.407-0.983,3.555-2.188,4.649c-0.329,0.329-0.383,0.656,0,0.985c1.259,1.204,2.188,2.681,2.188,5.855v5.032   C507.327,119.502,506.889,119.939,506.124,119.939 M497.48,99.31c-2.573,0-3.998,2.026-3.998,3.94v0.986   c0,0.383,0.219,0.601,0.603,0.601h3.396c1.148,0,3.991-0.329,3.991-2.625C501.471,100.186,499.557,99.31,497.48,99.31z"></path>
	<path fill-rule="evenodd" clip-rule="evenodd" d="M519.466,120.485c-4.814,0-8.1-2.953-9.742-5.579   c-0.381-0.603-0.273-1.26,0.331-1.697l2.187-1.479c0.602-0.382,1.205-0.218,1.587,0.33c1.095,1.477,3.283,3.228,5.638,3.228   c2.845-0.001,3.994-1.697,3.994-3.283c0-2.845-4.051-2.736-4.051-2.736c-5.907-0.328-9.192-3.282-9.192-7.606   c0-3.61,3.01-7.55,9.249-7.55c3.009,0,6.019,1.313,7.879,3.61c0.438,0.493,0.438,1.205-0.165,1.642l-2.352,1.697   c-0.549,0.383-1.205,0.274-1.698-0.165c-1.203-1.147-2.569-1.641-3.664-1.641c-2.681,0-3.557,1.532-3.557,2.406   c0,2.463,3.61,2.463,3.61,2.463c5.253,0.219,9.794,2.572,9.794,7.88C529.314,116.766,525.703,120.485,519.466,120.485"></path>
	<path fill-rule="evenodd" clip-rule="evenodd" d="M550.097,99.583h-5.143c-0.384,0-0.603,0.22-0.603,0.603v18.549   c0,0.768-0.438,1.205-1.203,1.205h-3.393c-0.767,0-1.204-0.438-1.204-1.205v-18.549c0-0.383-0.218-0.601-0.602-0.601l-5.144-0.002   c-0.766,0-1.204-0.438-1.204-1.203v-2.517c0-0.766,0.438-1.204,1.204-1.204h17.29c0.766,0,1.204,0.438,1.204,1.204v2.517   C551.301,99.146,550.863,99.585,550.097,99.583"></path>
	<path fill-rule="evenodd" clip-rule="evenodd" d="M566.285,117.969c-0.438,1.368-1.314,2.517-2.846,2.517s-2.408-1.148-2.845-2.517   l-7.056-22.052c-0.221-0.602,0.27-1.258,1.146-1.258h3.445c0.602,0,1.205,0.494,1.425,1.204l3.392,11.107   c0.166,0.493,0.272,0.765,0.492,0.765s0.328-0.271,0.494-0.765l3.39-11.107c0.221-0.71,0.822-1.204,1.423-1.204h3.448   c0.875,0,1.368,0.656,1.148,1.259L566.285,117.969z"></path>
	<path fill-rule="evenodd" clip-rule="evenodd" d="M585.426,120.485c-5.907,0-9.85-4.268-9.85-9.137v-8.099   c0-4.87,3.942-9.138,9.849-9.138c5.91,0,9.85,4.268,9.85,9.138v8.099C595.275,116.218,591.335,120.485,585.426,120.485    M589.422,103.25c0-1.914-1.423-3.94-3.997-3.94c-2.57,0-3.993,2.026-3.993,3.94v8.099c0,1.914,1.423,3.939,3.993,3.939   c2.574-0.001,3.997-2.024,3.997-3.939V103.25z"></path>
	<path fill-rule="evenodd" clip-rule="evenodd" d="M211.772,152.55c-2.462,0-4.288-1.453-5.183-2.904   c-0.223-0.373-0.26-0.857,0.15-1.155c0.334-0.263,0.82-0.225,1.116,0.187c0.822,1.116,2.2,2.234,3.915,2.234   c2.757-0.001,3.837-1.938,3.837-3.726c0-3.205-3.837-3.279-3.837-3.279c-3.279-0.187-5.181-1.976-5.181-4.658   c0-2.274,1.753-4.658,5.181-4.658c1.49-0.001,2.944,0.634,3.763,1.453c0.334,0.337,0.334,0.857,0,1.155   c-0.334,0.297-0.783,0.297-1.266-0.075c-0.672-0.559-1.454-0.931-2.497-0.931c-2.795,0-3.503,2.049-3.503,3.056   c0,2.795,3.465,3.055,3.465,3.055c2.982,0.188,5.628,1.491,5.628,4.883C217.361,150.241,215.272,152.55,211.772,152.55"></path>
	<path fill-rule="evenodd" clip-rule="evenodd" d="M232.277,152.179h-0.112c-0.521,0-0.819-0.299-0.819-0.82v-13.415   c0-1.19-0.561-1.714-1.455-1.714c-0.895,0-1.526,0.523-1.526,1.714v10.955c0,0.521-0.337,0.82-0.858,0.82   c-0.522,0-0.857-0.299-0.857-0.819v-10.956c0-1.19-0.596-1.714-1.528-1.714c-0.893,0-1.453,0.523-1.453,1.714v13.415   c0,0.521-0.299,0.82-0.82,0.82h-0.11c-0.522,0-0.821-0.299-0.821-0.82v-13.415c0-2.012,1.044-3.354,3.13-3.354   c0.67-0.001,1.304,0.186,1.825,0.522c0.561,0.334,0.709,0.334,1.268,0c0.521-0.337,1.156-0.522,1.825-0.522   c2.088-0.001,3.131,1.342,3.131,3.354v13.415C233.097,151.88,232.798,152.179,232.277,152.179"></path>
	<path fill-rule="evenodd" clip-rule="evenodd" d="M247.194,144.279h-6.148c-1.043,0-1.64,0.597-1.64,1.639v0.781   c0,2.126,1.417,4.212,3.838,4.212c1.864-0.001,2.795-1.154,3.392-2.012c0.26-0.409,0.782-0.522,1.153-0.263   c0.374,0.262,0.486,0.747,0.262,1.156c-0.671,1.304-2.273,2.757-4.808,2.757c-3.353,0-5.589-2.757-5.589-5.85v-6.26   c0-3.093,2.237-5.851,5.589-5.851c3.355-0.001,5.59,2.758,5.59,5.851v2.199C248.833,143.682,248.238,144.279,247.194,144.279    M247.083,140.44c0-2.124-1.416-4.211-3.839-4.211c-2.421,0-3.838,2.087-3.838,4.211v0.781c0,1.044,0.597,1.641,1.64,1.641h4.396   c1.044,0,1.641-0.597,1.641-1.641V140.44z"></path>
	<path fill-rule="evenodd" clip-rule="evenodd" d="M263.712,152.179c-0.333,0-0.595-0.186-0.743-0.411   c-0.187-0.298-0.484-0.335-0.746-0.185c-0.894,0.521-1.9,0.967-3.241,0.967c-3.354,0-5.59-2.757-5.59-5.85v-6.26   c0-3.093,2.236-5.851,5.59-5.851c0.818-0.001,1.602,0.149,2.459,0.559c0.782,0.374,1.377-0.148,1.377-0.894l0.001-5.851   c0-0.521,0.298-0.818,0.82-0.818l0.111-0.001c0.521,0,0.819,0.298,0.819,0.819v22.954   C264.57,151.88,264.236,152.179,263.712,152.179 M262.819,140.44c0-2.124-1.416-4.211-3.837-4.211   c-2.423,0-3.838,2.087-3.838,4.211v6.259c0,2.126,1.416,4.212,3.838,4.212c2.422-0.001,3.836-2.086,3.836-4.211L262.819,140.44z"></path>
	<path fill-rule="evenodd" clip-rule="evenodd" d="M278.668,144.279h-6.147c-1.045,0-1.64,0.597-1.64,1.639v0.781   c0,2.126,1.415,4.212,3.836,4.212c1.865-0.001,2.796-1.154,3.391-2.012c0.263-0.409,0.783-0.522,1.155-0.263   c0.372,0.262,0.485,0.747,0.262,1.156c-0.671,1.304-2.272,2.757-4.808,2.757c-3.354,0-5.588-2.757-5.588-5.85v-6.26   c0-3.093,2.234-5.851,5.588-5.851c3.353-0.001,5.591,2.758,5.591,5.851v2.199C280.308,143.682,279.711,144.279,278.668,144.279    M278.557,140.44c0-2.124-1.417-4.211-3.84-4.211c-2.421,0-3.836,2.087-3.836,4.211v0.781c0,1.044,0.595,1.641,1.64,1.641h4.396   c1.045,0,1.641-0.597,1.641-1.641V140.44z"></path>
	<path fill-rule="evenodd" clip-rule="evenodd" d="M295.112,137.385c-1.005-0.596-2.271-1.155-3.613-1.155   c-2.423,0-3.839,2.087-3.839,4.211v10.918c0,0.521-0.298,0.82-0.82,0.82h-0.11c-0.521,0-0.819-0.299-0.819-0.82V140.44   c0-3.093,2.236-5.851,5.589-5.851c1.864-0.001,3.576,0.782,4.508,1.417c0.374,0.261,0.521,0.746,0.261,1.116   C296.006,137.534,295.524,137.646,295.112,137.385"></path>
	<path fill-rule="evenodd" clip-rule="evenodd" d="M310.142,144.279h-6.147c-1.042,0-1.639,0.597-1.639,1.639v0.781   c0,2.126,1.416,4.212,3.837,4.212c1.863-0.001,2.795-1.154,3.392-2.012c0.26-0.409,0.783-0.522,1.155-0.263   c0.371,0.262,0.483,0.747,0.26,1.156c-0.672,1.304-2.273,2.757-4.807,2.757c-3.354,0-5.589-2.757-5.589-5.85v-6.26   c0-3.093,2.234-5.851,5.589-5.851c3.354-0.001,5.589,2.758,5.589,5.851v2.199C311.782,143.682,311.186,144.279,310.142,144.279    M310.031,140.44c0-2.124-1.416-4.211-3.838-4.211c-2.421,0-3.837,2.087-3.837,4.211v0.781c0,1.044,0.597,1.641,1.639,1.641h4.396   c1.045,0,1.641-0.597,1.641-1.641V140.44z"></path>
	<path fill-rule="evenodd" clip-rule="evenodd" d="M322.824,151.47c-0.147,0.484-0.41,1.08-0.895,1.08   c-0.483,0-0.744-0.596-0.894-1.08l-4.546-15.501c-0.149-0.559,0.148-1.006,0.746-1.006c0.596,0,0.931,0.372,1.116,1.006   l2.945,10.283c0.148,0.487,0.334,0.784,0.632,0.784c0.299,0,0.484-0.297,0.635-0.784l2.942-10.283   c0.188-0.634,0.521-1.006,1.119-1.006c0.595,0,0.894,0.447,0.745,1.006L322.824,151.47z"></path>
	<path fill-rule="evenodd" clip-rule="evenodd" d="M337.667,152.55c-2.459,0-4.285-1.453-5.179-2.904   c-0.222-0.373-0.261-0.857,0.148-1.155c0.335-0.263,0.82-0.225,1.117,0.187c0.823,1.116,2.199,2.234,3.913,2.234   c2.759-0.001,3.838-1.938,3.838-3.726c0-3.205-3.838-3.279-3.838-3.279c-3.279-0.187-5.179-1.976-5.179-4.658   c0-2.274,1.753-4.658,5.179-4.658c1.491-0.001,2.943,0.634,3.764,1.453c0.333,0.337,0.333,0.857,0,1.155   c-0.335,0.297-0.781,0.297-1.269-0.075c-0.667-0.559-1.45-0.931-2.495-0.931c-2.794,0-3.504,2.049-3.504,3.056   c0,2.795,3.467,3.055,3.467,3.055c2.98,0.188,5.627,1.491,5.627,4.883C343.256,150.241,341.168,152.55,337.667,152.55"></path>
	<path fill-rule="evenodd" clip-rule="evenodd" d="M358.172,152.179h-0.11c-0.521,0-0.818-0.299-0.818-0.82l0.001-2.868   c0-2.125-1.42-4.211-3.84-4.211c-2.422,0-3.838,2.086-3.838,4.211v2.868c0,0.521-0.298,0.82-0.82,0.82h-0.11   c-0.523,0-0.822-0.299-0.822-0.82v-22.954c0-0.521,0.299-0.818,0.822-0.818l0.11-0.001c0.522,0,0.82,0.298,0.82,0.819v12.817   c0,1.044,0.558,1.716,1.713,1.716c0.932,0,1.526-0.56,2.012-1.453l3.019-5.775c0.188-0.374,0.56-0.746,1.193-0.746   s0.932,0.409,0.596,1.006l-2.794,5.142c-0.484,0.933-0.187,1.716,0.483,2.049c1.491,0.783,3.206,2.46,3.206,5.331v2.868   C358.995,151.88,358.695,152.179,358.172,152.179"></path>
	<path fill-rule="evenodd" clip-rule="evenodd" d="M373.875,152.179c-0.337,0-0.598-0.186-0.746-0.411   c-0.186-0.298-0.485-0.335-0.746-0.185c-0.893,0.521-1.9,0.967-3.24,0.967c-3.355,0-5.59-2.757-5.59-5.85s2.234-5.85,5.59-5.85   c0.893,0,1.863,0.225,2.608,0.634c0.744,0.409,1.229-0.112,1.229-1.044c0-2.124-1.417-4.211-3.838-4.211   c-1.08,0-1.977,0.26-2.722,0.597c-0.448,0.224-0.931,0.186-1.155-0.262c-0.222-0.41,0-0.894,0.373-1.118   c0.821-0.483,2.014-0.856,3.504-0.856c3.353-0.001,5.587,2.758,5.587,5.851v10.918C374.729,151.88,374.394,152.179,373.875,152.179    M369.142,142.49c-2.424,0-3.838,2.087-3.838,4.21c0,2.125,1.414,4.211,3.838,4.211c2.421-0.001,3.838-2.086,3.838-4.211   C372.98,144.577,371.563,142.49,369.142,142.49z"></path>
	<path fill-rule="evenodd" clip-rule="evenodd" d="M400.616,152.55c-0.82,0-1.602-0.147-2.459-0.557   c-0.782-0.374-1.379,0.147-1.379,0.894v5.849c0,0.522-0.296,0.82-0.819,0.82h-0.113c-0.521,0-0.818-0.298-0.818-0.82V140.44   c0-3.093,2.236-5.851,5.589-5.851c3.354-0.001,5.589,2.758,5.589,5.851v6.259C406.205,149.793,403.969,152.55,400.616,152.55    M404.453,140.44c0-2.124-1.414-4.211-3.837-4.211c-2.424,0-3.838,2.087-3.838,4.211v6.259c0,2.126,1.414,4.212,3.838,4.212   c2.423-0.001,3.837-2.086,3.837-4.211V140.44z"></path>
	<path fill-rule="evenodd" clip-rule="evenodd" d="M421.084,152.179c-0.334,0-0.597-0.186-0.744-0.411   c-0.187-0.298-0.485-0.335-0.745-0.185c-0.896,0.521-1.901,0.967-3.243,0.967c-3.353,0-5.587-2.757-5.587-5.85   s2.233-5.85,5.587-5.85c0.895,0,1.864,0.225,2.61,0.634c0.742,0.409,1.229-0.112,1.229-1.044c0-2.124-1.415-4.211-3.839-4.211   c-1.08,0-1.976,0.26-2.721,0.597c-0.447,0.224-0.931,0.186-1.154-0.262c-0.224-0.41,0-0.894,0.372-1.118   c0.82-0.483,2.015-0.856,3.503-0.856c3.353-0.001,5.59,2.758,5.59,5.851v10.918C421.942,151.88,421.605,152.179,421.084,152.179    M416.352,142.49c-2.421,0-3.837,2.087-3.837,4.21c0,2.125,1.416,4.211,3.837,4.211c2.424-0.001,3.839-2.086,3.839-4.211   C420.191,144.577,418.776,142.49,416.352,142.49z"></path>
	<path fill-rule="evenodd" clip-rule="evenodd" d="M437.268,151.247c-0.595,0.558-1.787,1.303-3.539,1.303   c-3.354,0-5.589-2.757-5.589-5.85l0.001-18.296c0-0.521,0.297-0.818,0.818-0.818l0.111-0.001c0.522,0,0.82,0.298,0.82,0.819v18.295   c0,2.126,1.415,4.212,3.838,4.212c1.081-0.001,1.827-0.41,2.347-0.82c0.45-0.372,0.934-0.445,1.268-0.187   C437.791,150.277,437.679,150.874,437.268,151.247"></path>
	<path fill-rule="evenodd" clip-rule="evenodd" d="M452.562,152.179c-0.337,0-0.599-0.186-0.748-0.411   c-0.185-0.298-0.485-0.335-0.745-0.185c-0.895,0.521-1.9,0.967-3.241,0.967c-3.354,0-5.59-2.757-5.59-5.85   c0.001-3.093,2.235-5.85,5.59-5.85c0.895,0,1.862,0.225,2.608,0.634c0.745,0.409,1.229-0.112,1.229-1.044   c0-2.124-1.415-4.211-3.838-4.211c-1.08,0-1.977,0.26-2.72,0.597c-0.448,0.224-0.934,0.186-1.155-0.262   c-0.226-0.41,0-0.894,0.372-1.118c0.819-0.483,2.012-0.856,3.503-0.856c3.354-0.001,5.588,2.758,5.588,5.851l0.001,10.918   C453.417,151.88,453.081,152.179,452.562,152.179 M447.828,142.49c-2.423,0-3.839,2.087-3.839,4.21   c0,2.125,1.416,4.211,3.839,4.211c2.423-0.001,3.838-2.086,3.838-4.211C451.666,144.577,450.25,142.49,447.828,142.49z"></path>
	<path fill-rule="evenodd" clip-rule="evenodd" d="M468.335,152.179h-0.113c-0.521,0-0.819-0.299-0.819-0.82V140.44   c0-2.124-1.417-4.211-3.839-4.211s-3.838,2.087-3.838,4.211v10.918c0,0.521-0.298,0.82-0.82,0.82h-0.109   c-0.522,0-0.821-0.299-0.821-0.82v-15.574c0-0.523,0.335-0.821,0.857-0.821c0.336,0,0.596,0.186,0.746,0.409   c0.187,0.299,0.481,0.337,0.742,0.187c0.896-0.521,1.901-0.969,3.243-0.969c3.353-0.001,5.59,2.758,5.59,5.851v10.918   C469.154,151.88,468.855,152.179,468.335,152.179"></path>
	<path fill-rule="evenodd" clip-rule="evenodd" d="M484.072,152.179h-0.113c-0.519,0-0.819-0.299-0.819-0.82v-2.868   c0-2.125-1.415-4.211-3.838-4.211c-2.422,0-3.838,2.086-3.838,4.211v2.868c0,0.521-0.299,0.82-0.818,0.82h-0.113   c-0.521,0-0.818-0.299-0.818-0.82v-22.954c0-0.521,0.297-0.818,0.817-0.818l0.114-0.001c0.52,0,0.818,0.298,0.818,0.819v12.817   c0,1.044,0.559,1.716,1.715,1.716c0.932,0,1.527-0.56,2.012-1.453l3.018-5.775c0.187-0.374,0.558-0.746,1.192-0.746   c0.634,0,0.932,0.409,0.596,1.006l-2.795,5.142c-0.483,0.933-0.185,1.716,0.485,2.049c1.491,0.783,3.204,2.46,3.204,5.331v2.868   C484.89,151.88,484.593,152.179,484.072,152.179"></path>
	<path fill-rule="evenodd" clip-rule="evenodd" d="M499.772,152.179c-0.335,0-0.599-0.186-0.745-0.411   c-0.187-0.298-0.486-0.335-0.746-0.185c-0.896,0.521-1.901,0.967-3.243,0.967c-3.353,0-5.587-2.757-5.587-5.85   s2.234-5.85,5.587-5.85c0.896,0,1.865,0.225,2.607,0.634c0.745,0.409,1.232-0.112,1.232-1.044c0-2.124-1.415-4.211-3.84-4.211   c-1.079,0-1.974,0.26-2.72,0.597c-0.447,0.224-0.93,0.186-1.156-0.262c-0.223-0.41,0-0.894,0.374-1.118   c0.819-0.483,2.012-0.856,3.502-0.856c3.353-0.001,5.591,2.758,5.591,5.851v10.918C500.628,151.88,500.292,152.179,499.772,152.179    M495.038,142.49c-2.421,0-3.838,2.087-3.838,4.21c0,2.125,1.417,4.211,3.838,4.211c2.425-0.001,3.84-2.086,3.84-4.211   C498.877,144.577,497.462,142.49,495.038,142.49z"></path>
	<path fill-rule="evenodd" clip-rule="evenodd" fill="#00904C" d="M148.098,46.243c0,0-24.744,0.057-24.765,0.057   c-3.629-0.112-7.214,0.786-10.374,2.611c-3.221,1.86-5.832,4.578-7.55,7.86c0.035-0.063,0.07-0.127,0.104-0.188L93.078,78.009   c-0.895,1.541-0.896,3.44-0.006,4.983c0.89,1.542,2.538,2.491,4.317,2.486c0,0,24.743-0.057,24.766-0.057   c3.63,0.111,7.215-0.787,10.375-2.612c3.22-1.859,5.831-4.578,7.548-7.861c-0.034,0.063-0.067,0.128-0.104,0.191l12.437-21.428   c0.895-1.54,0.897-3.44,0.005-4.983C151.525,47.187,149.878,46.239,148.098,46.243 M123.345,56.246c0,0,8.788-0.021,16.114-0.037   c-3.679,6.338-8.089,13.938-8.089,13.938c-0.036,0.062-0.072,0.126-0.105,0.19c-0.841,1.61-2.123,2.944-3.707,3.858   c-1.587,0.915-3.385,1.359-5.199,1.283c-0.072-0.002-0.145-0.004-0.215-0.004c0,0-8.789,0.021-16.116,0.037   c3.678-6.338,8.087-13.936,8.087-13.936c0.038-0.064,0.073-0.128,0.106-0.192c0.842-1.609,2.125-2.942,3.709-3.859   c1.586-0.915,3.382-1.358,5.199-1.283C123.199,56.245,123.271,56.246,123.345,56.246z"></path>
	<path fill-rule="evenodd" clip-rule="evenodd" fill="#ED1C24" d="M65.753,44.268c0,3.719,1.047,7.339,3.032,10.469   c-0.04-0.061-0.077-0.124-0.112-0.186L81.01,76.033c0.887,1.544,2.532,2.496,4.312,2.496c1.782-0.001,3.426-0.952,4.314-2.496   l12.336-21.482c-0.036,0.062-0.074,0.125-0.112,0.186c1.984-3.128,3.033-6.749,3.033-10.469c0-5.227-2.035-10.142-5.732-13.838   c-3.697-3.697-8.612-5.733-13.839-5.733C74.532,24.696,65.753,33.476,65.753,44.268 M77.297,49.597   c-0.036-0.063-0.073-0.125-0.113-0.185c-0.971-1.537-1.486-3.314-1.486-5.145c0-5.307,4.317-9.625,9.625-9.625   c2.571,0,4.988,1.002,6.807,2.82c1.818,1.816,2.818,4.233,2.818,6.805c0,1.83-0.514,3.607-1.485,5.143   c-0.039,0.062-0.078,0.123-0.113,0.187c0,0-4.375,7.619-8.026,13.974C81.673,57.216,77.297,49.597,77.297,49.597z"></path>
	<path fill-rule="evenodd" clip-rule="evenodd" fill="#F37021" d="M30.964,56.093c-5.394,9.345-2.182,21.338,7.163,26.733   c3.16,1.825,6.744,2.725,10.376,2.612c0.022,0,24.762,0.058,24.762,0.058c1.781,0.004,3.428-0.944,4.318-2.486   c0.89-1.543,0.889-3.442-0.005-4.983L65.142,56.601c0.037,0.062,0.072,0.126,0.106,0.189c-1.717-3.282-4.327-6.001-7.548-7.861   C48.353,43.533,36.359,46.747,30.964,56.093 M43.101,74.213c-4.597-2.652-6.177-8.551-3.524-13.147   c2.654-4.597,8.553-6.176,13.148-3.523c1.585,0.917,2.867,2.25,3.71,3.861c0.033,0.063,0.068,0.128,0.105,0.189   c0,0,4.41,7.6,8.088,13.938c-7.328-0.019-16.114-0.039-16.114-0.039c-0.073-0.001-0.145,0.002-0.219,0.004   C46.481,75.571,44.686,75.128,43.101,74.213z"></path>
	<path fill-rule="evenodd" clip-rule="evenodd" fill="#F7941E" d="M73.275,89.464c0,0-24.74,0.058-24.762,0.058   c-3.633-0.112-7.216,0.786-10.375,2.611c-9.344,5.396-12.559,17.389-7.165,26.734c5.396,9.344,17.39,12.559,26.735,7.163   c3.22-1.859,5.831-4.577,7.549-7.862c-0.032,0.065-0.069,0.129-0.105,0.192l12.437-21.427c0.894-1.54,0.897-3.44,0.007-4.983   C76.704,90.408,75.057,89.461,73.275,89.464 M48.526,99.467c0,0,8.786-0.019,16.112-0.037c-3.678,6.338-8.088,13.937-8.088,13.937   c-0.037,0.063-0.072,0.126-0.105,0.191c-0.843,1.608-2.125,2.943-3.708,3.857c-4.596,2.654-10.495,1.073-13.148-3.521   c-2.653-4.597-1.073-10.494,3.523-13.147c1.584-0.916,3.381-1.359,5.197-1.282C48.38,99.466,48.452,99.469,48.526,99.467z"></path>
	<path fill-rule="evenodd" clip-rule="evenodd" fill="#FFCB05" d="M81.03,98.909l-12.338,21.482   c0.036-0.063,0.072-0.124,0.111-0.187c-1.983,3.129-3.032,6.75-3.032,10.468c0,5.229,2.035,10.141,5.732,13.839   c3.697,3.696,8.611,5.732,13.838,5.732c10.791,0,19.57-8.778,19.57-19.57c0.001-3.719-1.048-7.34-3.031-10.468   c0.039,0.062,0.076,0.123,0.112,0.186L89.654,98.909c-0.885-1.544-2.531-2.495-4.312-2.495   C83.562,96.414,81.916,97.366,81.03,98.909 M78.536,137.479c-1.818-1.819-2.819-4.234-2.819-6.805c0-0.001,0-0.001,0-0.001   c0-1.83,0.515-3.609,1.487-5.142c0.04-0.062,0.077-0.124,0.112-0.187c0,0,4.376-7.619,8.026-13.974   c3.648,6.354,8.026,13.975,8.026,13.975c0.035,0.062,0.072,0.124,0.111,0.187c0.973,1.531,1.485,3.312,1.485,5.141   c0.001,5.308-4.316,9.625-9.623,9.625C82.771,140.299,80.354,139.296,78.536,137.479z"></path>
</g>
</svg>
